<?xml version="1.0" standalone="no"?>
<!DOCTYPE svg PUBLIC "-//W3C//DTD SVG 20010904//EN"
 "http://www.w3.org/TR/2001/REC-SVG-20010904/DTD/svg10.dtd">
<svg version="1.0" xmlns="http://www.w3.org/2000/svg"
 width="4800.000000pt" height="2660.000000pt" viewBox="0 0 4800.000000 2660.000000"
 preserveAspectRatio="xMidYMid meet">

<g transform="translate(0.000000,2660.000000) scale(0.100000,-0.100000)"
fill="#000000" stroke="none">
<path d="M15669 25278 c0 -2 -2 -10 -4 -19 -8 -43 -17 -58 -31 -52 -20 8 -18
-30 11 -209 14 -84 41 -293 60 -465 19 -171 48 -414 65 -540 29 -222 48 -448
70 -818 6 -99 18 -274 28 -390 24 -296 24 -1213 -1 -1490 -9 -104 -21 -248
-27 -320 -15 -181 -47 -465 -71 -620 -11 -71 -38 -247 -59 -390 -21 -143 -52
-327 -69 -410 -16 -82 -46 -256 -66 -385 -20 -129 -49 -316 -65 -415 -28 -170
-88 -707 -110 -990 -6 -71 -20 -229 -31 -350 -15 -162 -22 -341 -26 -678 l-6
-457 2499 5 c2303 6 3472 17 4777 45 230 5 425 6 432 4 22 -9 711 17 1235 46
96 5 285 14 420 20 135 6 373 17 530 25 157 8 395 19 530 25 686 30 1059 53
1350 85 159 18 400 39 677 60 110 8 258 22 329 30 71 8 138 15 149 16 20 0 20
0 0 8 -14 6 1 10 50 13 257 20 778 91 890 123 28 8 147 30 266 50 118 19 262
48 320 64 57 16 163 43 234 61 278 68 651 199 899 314 138 65 323 172 371 216
22 20 53 46 68 58 43 32 197 246 197 273 0 9 6 22 14 28 12 10 14 95 13 542
-2 504 -1 529 16 529 15 0 18 7 15 48 -2 31 -7 46 -15 45 -7 -2 -12 0 -11 5 1
4 -4 21 -11 37 -6 17 -21 54 -33 84 -51 129 -230 367 -361 482 -116 102 -214
166 -397 261 -411 213 -764 337 -1206 422 -100 19 -213 42 -250 51 -103 24
-681 121 -987 165 -286 42 -335 50 -492 80 -55 10 -201 35 -325 55 -393 63
-1198 231 -1410 295 -19 6 -120 33 -223 61 -104 27 -232 63 -285 80 -235 75
-320 103 -362 120 -25 9 -94 35 -155 57 -60 22 -162 64 -225 92 -109 50 -210
93 -500 215 -127 53 -329 151 -455 220 -201 109 -463 264 -610 358 -130 84
-180 114 -231 141 -58 31 -202 138 -325 243 -46 39 -129 109 -185 155 -82 68
-336 287 -481 414 -277 244 -544 515 -665 674 -88 117 -141 182 -238 297 -98
113 -326 419 -476 635 -23 32 -72 96 -110 142 -72 88 -175 251 -219 348 -15
32 -31 60 -36 64 -6 3 -31 -4 -57 -16 -50 -24 -555 -152 -787 -200 -164 -34
-234 -45 -410 -64 -200 -23 -236 -25 -599 -41 -465 -21 -967 -6 -1401 41 -144
16 -524 86 -700 130 -55 14 -176 41 -270 60 -93 19 -213 48 -265 63 -86 26
-179 45 -181 39z m265 -228 c61 -16 190 -45 288 -65 97 -19 216 -43 265 -54
230 -51 811 -119 1215 -142 229 -13 812 -7 1003 11 378 35 808 92 980 131 99
23 239 54 310 70 72 15 155 36 185 45 30 8 64 17 74 17 20 2 51 -38 120 -153
53 -88 144 -215 241 -334 44 -54 87 -108 95 -120 51 -74 282 -381 334 -445 35
-42 94 -117 132 -167 194 -257 472 -542 874 -897 616 -544 583 -516 810 -683
113 -83 200 -139 335 -218 55 -33 143 -85 195 -116 96 -59 321 -190 324 -190
1 0 80 -42 174 -94 95 -51 220 -115 279 -142 60 -27 185 -87 278 -134 94 -47
208 -100 255 -117 47 -17 175 -66 285 -108 110 -41 252 -91 315 -111 63 -20
153 -49 200 -66 306 -107 1329 -345 1845 -428 105 -17 231 -39 280 -49 83 -18
377 -65 570 -91 44 -6 141 -22 215 -35 74 -14 230 -38 345 -55 116 -17 298
-48 405 -70 107 -21 267 -53 355 -70 275 -53 949 -273 1094 -357 23 -14 80
-44 125 -67 151 -78 316 -195 411 -291 150 -152 306 -391 291 -448 -6 -27 -73
-107 -89 -107 -14 0 -57 -40 -57 -54 0 -18 -129 -134 -186 -165 -30 -17 -54
-35 -54 -40 0 -15 -538 -276 -670 -325 -41 -16 -114 -44 -163 -62 -300 -116
-1173 -321 -1662 -389 -137 -19 -324 -48 -415 -65 -142 -26 -533 -74 -780 -95
-41 -4 -133 -15 -205 -25 -71 -11 -211 -26 -310 -35 -99 -9 -274 -27 -390 -40
-319 -37 -764 -63 -1420 -85 -395 -13 -764 -29 -835 -35 -176 -17 -1035 -37
-1905 -45 -1527 -13 -2474 -12 -3440 7 -484 9 -1051 16 -1260 16 -278 -1 -382
2 -387 10 -6 9 -8 9 -8 0 0 -10 -27 -13 -101 -13 -122 0 -128 19 -6 22 185 4
-456 15 -959 17 -298 0 -556 4 -574 7 l-32 7 6 76 c3 42 13 166 21 276 29 375
45 524 80 730 13 77 29 185 35 240 23 206 61 453 85 550 13 55 40 208 60 340
20 132 47 299 60 370 24 129 36 224 95 755 17 151 35 310 40 354 22 184 31
759 20 1220 -6 252 -12 462 -15 465 -6 10 -52 498 -65 686 -18 265 -49 580
-75 760 -30 204 -85 667 -85 713 0 40 3 40 144 2z m2146 -137 c127 -6 145 -8
100 -14 -86 -11 -236 -9 -338 4 -51 7 -91 15 -88 17 5 6 83 4 326 -7z m6865
-3603 c3 -5 2 -10 -4 -10 -5 0 -13 5 -16 10 -3 6 -2 10 4 10 5 0 13 -4 16 -10z
m6503 -3000 l-3 -405 -30 -60 c-16 -33 -50 -81 -75 -106 -25 -26 -71 -74 -103
-108 -33 -34 -91 -83 -130 -108 -40 -25 -74 -49 -77 -52 -3 -4 -30 -18 -60
-30 -103 -44 -165 -72 -202 -92 -20 -11 -83 -36 -139 -55 -56 -19 -121 -43
-143 -54 -23 -10 -97 -35 -166 -55 -69 -20 -161 -48 -205 -61 -44 -14 -177
-45 -295 -70 -118 -25 -237 -51 -265 -59 -27 -8 -174 -35 -325 -59 -152 -25
-305 -52 -340 -60 -89 -20 -174 -31 -515 -66 -302 -31 -436 -48 -445 -57 -3
-3 31 -3 75 0 44 3 71 2 60 -3 -11 -4 -81 -10 -155 -14 -74 -4 -191 -11 -260
-16 -314 -24 -407 -30 -580 -40 -303 -16 -497 -33 -470 -40 47 -13 -2 -19
-240 -30 -129 -5 -327 -14 -440 -20 -113 -5 -423 -16 -690 -25 -541 -16 -621
-20 -900 -40 -746 -54 -2442 -75 -6330 -75 -1345 -1 -2460 -1 -2477 0 l-33 0
0 138 c0 166 19 698 26 731 l5 23 592 -6 c326 -3 1731 -11 3122 -17 3879 -17
4823 -4 6530 91 99 6 311 17 470 25 318 17 671 45 950 75 738 81 905 103 1220
164 196 38 388 73 500 91 55 8 190 35 300 60 110 24 216 46 235 50 38 7 388
100 535 142 111 32 416 141 527 189 94 41 209 95 413 196 139 69 354 204 378
238 6 9 41 40 77 69 63 51 64 51 73 29 5 -13 7 -205 5 -428z m-14468 -840 c0
-6 -68 -9 -187 -8 l-188 2 180 6 c99 3 183 7 188 8 4 1 7 -2 7 -8z"/>
<path d="M20455 24463 c-16 -2 -37 -12 -45 -22 -8 -10 -31 -24 -50 -31 -61
-23 -163 -95 -216 -151 -73 -79 -106 -154 -108 -248 -1 -87 9 -111 79 -188 70
-78 102 -87 288 -80 208 8 358 46 408 103 25 28 33 63 17 69 -8 3 -75 -8 -149
-25 -161 -37 -342 -49 -434 -30 -44 9 -68 21 -92 45 -30 30 -33 39 -33 92 0
105 85 227 211 302 123 73 186 129 176 155 -4 9 -10 15 -14 15 -4 -1 -21 -4
-38 -6z m10 -23 c-3 -5 -13 -10 -21 -10 -8 0 -12 5 -9 10 3 6 13 10 21 10 8 0
12 -4 9 -10z"/>
<path d="M21194 23402 c-192 -124 -342 -307 -359 -438 -14 -102 38 -191 135
-233 101 -43 156 -38 335 31 146 56 293 183 245 213 -11 7 -66 -20 -143 -69
-55 -35 -186 -95 -251 -116 -79 -25 -168 6 -216 77 -19 28 -22 42 -17 82 11
96 72 186 198 296 82 72 159 161 159 185 0 19 -27 10 -86 -28z"/>
<path d="M22153 22507 c-40 -12 -102 -76 -192 -197 -88 -119 -116 -171 -137
-250 -27 -106 -4 -182 69 -224 99 -58 193 -55 325 10 92 45 250 163 326 243
53 57 57 64 43 78 -14 14 -20 14 -59 -5 -24 -11 -51 -28 -59 -38 -26 -32 -203
-159 -274 -196 -38 -20 -94 -43 -122 -51 -52 -16 -53 -16 -83 10 -17 14 -38
42 -46 62 -35 81 1 175 155 406 47 71 89 135 94 142 11 17 -4 21 -40 10z"/>
<path d="M19564 21913 c-21 -3 -34 -11 -37 -23 -3 -10 -27 -33 -55 -50 -28
-17 -59 -45 -69 -63 -11 -18 -46 -50 -79 -72 -32 -22 -61 -44 -63 -50 -4 -9
-96 -107 -196 -209 -22 -23 -54 -59 -70 -81 -37 -50 -118 -138 -307 -332 -146
-150 -198 -223 -198 -278 1 -39 38 -102 121 -199 169 -199 239 -290 239 -308
0 -10 -15 -35 -33 -55 -19 -21 -47 -58 -64 -83 -32 -47 -94 -117 -243 -280
-48 -52 -103 -113 -121 -135 -19 -23 -50 -59 -70 -80 -20 -22 -91 -101 -158
-175 -68 -74 -147 -157 -176 -185 -83 -78 -84 -129 -3 -137 35 -4 51 0 88 25
25 16 49 37 54 45 5 9 37 46 70 82 217 234 267 289 297 325 18 22 74 85 125
140 295 324 374 429 374 499 0 23 -7 62 -15 87 -20 57 -140 208 -276 348 -26
26 -50 58 -54 70 -8 26 -13 19 195 236 69 71 164 173 210 225 134 151 176 195
321 340 164 163 210 214 214 237 1 10 8 17 14 16 17 -4 29 30 27 77 -2 48 -6
50 -62 43z"/>
<path d="M23116 21783 c-3 -4 -6 -14 -6 -23 0 -10 -7 -23 -16 -31 -9 -7 -28
-38 -44 -69 -16 -31 -36 -63 -45 -70 -32 -27 -97 -181 -101 -240 -2 -30 -6
-86 -8 -124 -6 -82 23 -168 62 -185 30 -14 196 -14 247 0 22 6 54 23 70 38 17
14 46 35 65 45 43 24 80 51 128 94 20 19 52 45 70 60 67 51 122 214 60 175 -7
-4 -20 -6 -30 -5 -9 2 -25 -9 -35 -24 -10 -14 -38 -48 -62 -75 -24 -27 -40
-49 -36 -49 4 0 14 8 22 18 13 16 14 16 11 -3 -2 -13 -14 -21 -35 -26 -17 -3
-46 -18 -63 -33 -17 -14 -38 -26 -45 -26 -8 0 -23 -12 -33 -28 -33 -46 -105
-75 -199 -80 -129 -7 -156 23 -133 148 12 66 125 308 160 345 11 11 32 36 47
55 59 74 59 68 3 64 -38 -2 -50 0 -50 11 0 8 7 18 16 23 14 8 14 10 1 15 -8 3
-18 3 -21 0z m6 -105 c-7 -7 -12 -8 -12 -2 0 14 12 26 19 19 2 -3 -1 -11 -7
-17z"/>
<path d="M23170 21771 c0 -4 11 -6 25 -3 14 2 25 6 25 8 0 2 -11 4 -25 4 -14
0 -25 -4 -25 -9z"/>
<path d="M18457 21476 c-53 -26 -340 -312 -435 -434 -173 -222 -202 -287 -222
-489 -24 -253 44 -480 188 -630 59 -61 100 -71 127 -29 18 27 15 36 -73 231
-75 167 -94 229 -99 330 -7 112 10 184 73 310 84 169 207 312 449 526 66 58
120 112 121 120 0 8 4 22 9 32 11 26 -1 47 -27 46 -13 0 -32 2 -43 5 -11 3
-40 -4 -68 -18z"/>
<path d="M22876 21316 c-13 -53 -18 -143 -9 -149 7 -4 12 26 15 81 6 93 4 108
-6 68z"/>
<path d="M24116 21127 c-15 -19 -26 -38 -26 -44 0 -5 -13 -28 -28 -49 -56 -78
-102 -251 -102 -382 0 -72 29 -151 66 -183 33 -29 91 -42 152 -34 96 11 142
26 159 51 15 23 124 84 150 84 8 0 20 15 28 34 8 19 35 51 59 71 25 20 48 46
52 58 4 12 18 38 31 58 30 46 28 93 -3 97 -18 3 -22 -4 -28 -37 -3 -23 -11
-41 -17 -41 -6 0 -9 8 -6 18 11 41 11 47 -2 47 -8 0 -19 -15 -24 -35 -5 -19
-21 -51 -35 -70 -14 -19 -26 -43 -27 -54 0 -14 -10 -22 -32 -28 -18 -5 -38
-17 -46 -28 -11 -16 -35 -25 -80 -29 -5 -1 -5 -10 -2 -21 5 -17 -2 -24 -48
-45 -71 -33 -163 -50 -193 -36 -48 21 -57 52 -52 169 4 86 12 126 38 202 17
52 45 112 61 132 16 20 29 46 29 56 0 11 8 23 17 26 14 6 15 9 2 20 -8 7 -26
16 -41 20 -22 5 -31 1 -52 -27z m-53 -177 c-3 -11 -7 -20 -9 -20 -2 0 -4 9 -4
20 0 11 4 20 9 20 5 0 7 -9 4 -20z m-32 -287 c-3 -68 -5 -74 -12 -43 -10 38 0
166 10 138 3 -9 4 -52 2 -95z"/>
<path d="M19446 21035 c-22 -33 -7 -100 28 -129 28 -23 70 -116 108 -236 18
-60 23 -97 23 -190 0 -106 -3 -122 -34 -205 -56 -149 -148 -300 -228 -377 -31
-29 -77 -75 -102 -102 -25 -26 -57 -54 -71 -61 -14 -7 -45 -33 -70 -57 -25
-24 -67 -58 -93 -75 -41 -29 -47 -37 -47 -68 0 -20 5 -45 10 -56 23 -43 122
-2 230 95 31 28 89 78 129 111 40 33 102 94 139 136 117 134 157 201 219 369
l58 155 -1 150 0 150 -46 120 c-25 66 -55 140 -67 165 -27 59 -94 124 -121
117 -11 -3 -23 -1 -26 4 -9 15 -21 10 -38 -16z"/>
<path d="M25357 20743 c-4 -3 -7 -14 -7 -23 0 -9 -13 -26 -29 -38 -35 -25
-113 -168 -149 -272 -21 -63 -26 -93 -26 -190 0 -63 6 -134 13 -158 10 -37 18
-46 57 -63 106 -45 218 -14 339 96 135 122 234 223 262 268 14 23 41 60 60 83
36 44 44 91 17 101 -22 8 -66 -27 -86 -70 -10 -20 -30 -43 -46 -51 -30 -16
-58 -58 -48 -74 3 -5 -1 -15 -9 -22 -13 -11 -14 -8 -11 21 l4 34 -22 -29 c-11
-17 -38 -49 -59 -72 -21 -24 -37 -46 -35 -51 2 -4 -10 -14 -27 -22 -16 -8 -48
-27 -69 -43 -21 -15 -46 -28 -54 -28 -8 0 -23 -11 -34 -25 -16 -21 -71 -45
-104 -45 -46 0 -72 104 -54 216 15 90 44 170 105 289 42 82 51 107 47 138 -4
34 -19 47 -35 30z"/>
<path d="M26522 20398 c-6 -7 -14 -26 -17 -41 -4 -15 -12 -30 -18 -34 -6 -4
-8 0 -4 9 3 9 3 19 -1 22 -11 11 -53 -134 -69 -239 -30 -198 -3 -354 69 -391
18 -9 43 -27 55 -40 13 -15 33 -24 51 -24 28 0 190 77 223 106 8 8 18 14 21
14 3 0 64 58 134 129 143 143 243 283 222 309 -9 10 -9 15 2 22 11 7 11 11 1
24 -21 25 -39 19 -65 -21 -23 -37 -52 -70 -92 -105 -10 -9 -36 -36 -56 -60
-93 -108 -216 -231 -250 -251 -21 -11 -38 -25 -38 -29 0 -12 -79 -48 -106 -48
-44 0 -77 67 -89 180 -13 129 35 362 87 417 21 23 21 23 1 23 -13 0 -20 6 -19
17 1 21 -27 29 -42 11z m-49 -447 c4 -61 2 -90 -4 -84 -10 10 -14 73 -11 147
3 63 9 38 15 -63z"/>
<path d="M28416 20061 c-11 -17 3 -264 19 -336 24 -110 42 -246 75 -580 17
-170 37 -348 45 -395 17 -95 48 -333 67 -515 l13 -120 45 4 c25 1 45 4 46 5 4
5 -40 362 -56 456 -21 124 -50 360 -75 615 -8 88 -25 221 -36 295 -11 74 -31
216 -44 315 -23 162 -30 194 -55 245 -9 18 -36 25 -44 11z"/>
<path d="M17318 17473 c23 -2 61 -2 85 0 23 2 4 4 -43 4 -47 0 -66 -2 -42 -4z"/>
<path d="M31083 18188 c-5 -7 -13 -21 -16 -31 -4 -9 -15 -20 -24 -24 -33 -11
-148 -63 -173 -77 -43 -25 -228 -116 -236 -116 -4 0 -15 -6 -23 -14 -14 -12
-78 -38 -346 -142 -182 -70 -618 -206 -766 -239 -90 -19 -220 -49 -289 -65
-69 -16 -224 -45 -345 -65 -121 -19 -274 -46 -340 -60 -131 -26 -180 -32 -550
-70 -137 -15 -295 -35 -350 -45 -160 -31 -522 -63 -1005 -90 -107 -6 -235 -15
-285 -20 -49 -5 -99 -10 -110 -11 -11 -1 5 -6 35 -10 49 -6 46 -7 -27 -5 -47
1 -79 -2 -76 -7 3 -5 -4 -6 -15 -3 -12 4 -94 2 -184 -3 -219 -15 -767 -38
-1303 -56 -242 -8 -550 -22 -685 -30 -823 -50 -2906 -70 -6093 -59 l-2038 7 3
-64 3 -64 2855 1 c2718 1 4432 12 5245 34 345 10 852 33 955 45 54 6 599 31
985 45 348 12 594 31 915 70 96 12 525 45 700 55 125 7 336 35 495 65 55 11
190 29 300 40 250 26 441 55 570 86 55 13 161 33 235 44 74 12 216 41 315 65
99 24 230 55 291 69 136 30 406 114 534 166 180 73 405 170 440 190 19 11 130
67 245 125 129 64 224 118 248 140 39 38 42 45 28 61 -5 5 -11 23 -13 39 -3
28 -6 30 -49 33 -29 2 -49 -2 -56 -10z"/>
<path d="M31612 18095 c0 -16 2 -22 5 -12 2 9 2 23 0 30 -3 6 -5 -1 -5 -18z"/>
<path d="M31603 17970 c0 -41 2 -58 4 -37 2 20 2 54 0 75 -2 20 -4 3 -4 -38z"/>
<path d="M32045 12715 c-44 -8 -100 -21 -125 -29 -104 -33 -225 -78 -230 -86
-3 -4 -45 -27 -95 -49 -49 -23 -115 -61 -145 -85 -30 -23 -74 -53 -97 -66 -24
-13 -45 -31 -48 -40 -3 -9 -23 -30 -45 -46 -36 -26 -105 -109 -166 -199 -12
-17 -36 -65 -54 -107 -17 -42 -36 -78 -41 -80 -16 -5 -87 -229 -100 -311 -21
-130 9 -300 70 -412 99 -179 130 -228 184 -295 157 -195 295 -304 551 -438 43
-22 320 -121 401 -143 39 -10 151 -37 250 -59 536 -117 569 -127 837 -233 253
-101 388 -178 498 -287 236 -233 373 -525 387 -828 8 -159 -7 -260 -64 -432
-46 -137 -140 -332 -197 -405 -17 -22 -44 -60 -60 -85 -16 -25 -71 -86 -122
-135 -87 -84 -103 -96 -241 -163 -207 -100 -276 -117 -478 -116 -173 0 -284
18 -540 85 -66 17 -145 37 -175 44 -119 27 -188 48 -265 80 -44 18 -123 49
-175 69 -111 41 -310 141 -428 214 -46 29 -87 52 -92 52 -4 0 -22 13 -39 29
-18 16 -61 46 -96 66 -41 23 -67 44 -70 58 -4 12 -22 30 -43 40 -87 42 -112
60 -118 82 -7 28 -52 72 -79 77 -14 2 -21 13 -23 32 -2 16 -16 45 -30 64 -15
19 -27 46 -27 61 -1 19 -10 30 -32 40 -33 14 -53 47 -53 84 0 12 -6 42 -14 67
l-14 45 -6 -35 c-3 -19 -4 -57 -2 -85 2 -27 5 -243 5 -479 l1 -430 28 26 c15
14 39 28 55 32 15 3 27 11 27 16 0 13 -13 13 -27 -1 -15 -15 -43 -4 -43 15 0
9 13 17 33 20 17 3 79 13 135 22 71 11 125 14 170 9 94 -10 453 -114 658 -190
96 -36 176 -65 179 -65 3 0 79 -33 170 -74 90 -41 197 -84 237 -96 40 -12 134
-41 208 -65 193 -62 252 -70 490 -69 232 1 277 8 450 75 58 22 130 50 160 61
166 64 471 354 576 548 20 36 47 84 61 108 33 58 128 333 148 429 26 124 31
348 11 483 -10 63 -26 133 -36 155 -10 22 -36 76 -57 120 -92 196 -332 477
-555 651 -115 89 -153 111 -325 185 -241 103 -519 176 -818 215 -27 3 -52 8
-55 9 -3 2 -61 13 -130 24 -286 49 -421 76 -475 97 -40 16 -49 19 -159 68 -88
39 -226 141 -321 236 -167 167 -183 186 -224 260 -23 41 -51 86 -61 100 -33
41 -53 177 -47 315 6 135 17 178 87 342 83 194 221 341 449 480 58 36 281 121
372 142 132 31 319 45 436 31 110 -12 236 -43 271 -66 13 -9 51 -26 85 -39
108 -41 154 -64 285 -144 129 -78 401 -268 502 -350 170 -137 443 -382 489
-439 l30 -37 1 419 0 418 -22 -16 c-48 -34 -84 -49 -113 -49 l-30 1 28 -11
c15 -6 27 -15 27 -20 0 -9 -75 0 -100 13 -8 4 -42 13 -75 20 -82 16 -330 87
-369 105 -17 8 -80 32 -141 54 -60 22 -193 74 -295 116 -102 42 -222 92 -268
111 -157 64 -219 76 -412 80 -119 2 -200 -1 -255 -11z"/>
<path d="M25989 12623 c-1 -5 -1 -11 -1 -14 1 -3 2 -33 3 -67 3 -73 -14 -66
204 -82 77 -5 164 -13 193 -16 l52 -6 1 -722 c2 -1324 -3 -3959 -8 -3972 -4
-10 -87 -19 -353 -37 l-35 -2 -3 -83 -3 -83 508 2 c366 2 522 -1 558 -9 57
-14 405 -124 480 -152 113 -43 485 -126 695 -156 237 -34 649 -24 875 22 93
19 402 102 423 114 9 5 73 31 142 56 69 26 132 53 140 60 8 6 66 37 128 68 61
31 112 60 112 65 0 5 17 19 38 31 20 13 31 25 25 27 -21 8 -14 27 14 41 15 6
33 12 39 12 18 0 26 17 30 61 5 52 -16 72 -64 63 -46 -8 -96 -33 -69 -34 30 0
14 -24 -24 -35 -30 -9 -126 -51 -169 -75 -8 -4 -14 -13 -13 -19 2 -6 -24 -23
-57 -38 -33 -15 -58 -33 -56 -40 3 -6 -3 -13 -12 -16 -9 -3 -71 -24 -137 -46
-66 -23 -127 -41 -137 -41 -9 0 -20 -5 -24 -11 -5 -9 1 -10 22 -5 16 4 26 5
23 2 -8 -8 -135 -41 -229 -60 -84 -16 -172 -30 -335 -51 l-110 -14 125 4 c88
3 115 2 90 -5 -164 -43 -759 -38 -789 7 -3 5 -58 18 -121 28 -169 26 -327 61
-459 101 -236 73 -307 97 -340 115 -40 24 -171 74 -226 88 -41 10 -182 25
-342 36 -71 6 -93 11 -100 24 -10 21 -15 3909 -6 4341 l8 335 115 11 c63 6
163 15 222 19 59 4 114 12 122 18 15 12 39 124 29 140 -2 4 -272 7 -599 7
-327 0 -595 -3 -595 -7z m23 -53 c-2 -16 -6 -30 -8 -30 -2 0 -4 14 -4 30 0 17
4 30 8 30 5 0 7 -13 4 -30z m4071 -4957 c-7 -2 -19 -2 -25 0 -7 3 -2 5 12 5
14 0 19 -2 13 -5z"/>
<path d="M28649 12620 c-5 -26 0 -103 7 -110 5 -5 95 -14 199 -20 105 -6 202
-13 216 -16 l26 -5 7 -988 c4 -543 4 -1353 0 -1798 l-7 -811 -71 -6 c-39 -3
-138 -9 -219 -12 -168 -8 -167 -7 -167 -93 l0 -51 585 0 585 0 0 68 c0 48 -3
63 -10 52 -9 -13 -12 -13 -20 1 -8 14 -41 17 -212 23 -112 4 -207 12 -213 17
-11 11 -21 3456 -10 3546 l6 52 42 5 c23 2 116 10 207 16 214 15 210 14 210
56 0 19 -5 34 -11 34 -5 0 -8 4 -5 8 17 28 -23 30 -577 33 -312 2 -567 2 -568
-1z m1131 -20 c0 -5 -4 -10 -10 -10 -5 0 -10 5 -10 10 0 6 5 10 10 10 6 0 10
-4 10 -10z"/>
<path d="M35000 12613 c0 -5 78 -7 172 -5 323 4 354 8 91 10 -145 1 -263 -1
-263 -5z"/>
<path d="M7036 12587 c-182 -4 -332 -10 -335 -13 -3 -2 -7 -33 -9 -68 l-4 -63
173 -7 c95 -3 175 -9 178 -12 9 -9 12 -4055 4 -4384 l-8 -295 -60 -11 c-33 -7
-106 -17 -162 -24 l-102 -12 -6 -57 c-3 -31 -8 -68 -10 -83 l-4 -28 533 0 534
0 6 32 c3 17 3 53 0 80 -8 57 6 52 -204 73 -85 9 -157 21 -161 26 -16 27 -28
1823 -11 1832 4 2 41 0 82 -5 41 -5 298 -9 570 -11 425 -1 515 1 635 16 367
47 539 87 765 177 127 51 307 146 350 184 19 17 51 41 71 54 20 12 49 38 63
56 14 19 35 38 46 41 11 3 20 15 20 25 0 10 15 36 33 57 17 21 40 50 49 64 14
19 16 20 11 4 -15 -48 35 33 81 130 13 28 33 58 44 67 12 9 26 35 31 56 6 22
21 50 34 63 29 30 43 79 63 216 15 111 21 416 9 534 -11 105 -46 289 -57 289
-5 0 -16 17 -25 38 -8 20 -31 60 -49 88 -19 28 -34 54 -34 57 0 24 -104 169
-179 249 -185 197 -408 330 -730 434 -309 101 -440 114 -1206 118 -529 4 -665
7 -694 19 -3 1 -154 -1 -335 -6z m-23 -14 c-13 -2 -33 -2 -45 0 -13 2 -3 4 22
4 25 0 35 -2 23 -4z m1278 -163 c244 -11 381 -28 607 -75 201 -41 243 -55 403
-133 249 -122 392 -242 519 -435 69 -105 109 -203 153 -367 27 -102 30 -135
34 -295 4 -143 1 -196 -12 -260 -9 -44 -19 -95 -22 -114 -3 -19 -14 -49 -24
-65 -11 -17 -19 -37 -19 -45 0 -7 -13 -41 -29 -75 -16 -33 -31 -74 -35 -89 -4
-16 -16 -31 -30 -37 -15 -5 -27 -20 -31 -38 -8 -39 -72 -113 -93 -110 -12 2
-17 -4 -17 -19 0 -30 -73 -103 -102 -103 -16 0 -23 -6 -23 -18 0 -19 -29 -51
-65 -70 -12 -7 -14 -12 -6 -12 11 0 11 -3 1 -15 -7 -8 -17 -15 -24 -15 -16 0
-158 -70 -181 -90 -22 -20 -192 -75 -365 -119 -211 -54 -314 -62 -925 -71
-308 -5 -575 -7 -592 -4 l-33 6 -2 672 c-2 817 0 1294 8 1693 l7 302 146 4
c344 7 559 6 752 -3z"/>
<path d="M13114 12563 l-141 -4 3 -60 c1 -33 5 -63 9 -67 3 -3 62 -9 131 -13
69 -3 129 -10 134 -15 5 -5 11 -544 13 -1199 4 -1307 3 -1283 66 -1518 47
-173 76 -250 137 -366 104 -198 209 -321 377 -445 56 -41 116 -89 134 -107 25
-25 60 -41 170 -76 261 -82 395 -108 626 -120 105 -5 127 -4 127 8 0 11 2 11
9 1 6 -11 30 -10 132 3 233 30 375 56 404 75 6 4 60 24 120 44 61 21 117 46
125 55 9 10 35 30 58 45 69 44 132 92 222 174 173 156 278 309 350 507 18 50
40 110 50 135 23 57 47 215 60 390 6 76 10 619 11 1240 1 608 4 1116 8 1130
l7 25 184 8 c101 4 186 10 188 12 2 2 7 33 9 69 l6 66 -452 0 -451 0 0 -68 0
-69 166 -6 c92 -4 168 -8 170 -10 2 -2 4 -487 6 -1078 2 -1271 4 -1238 -87
-1569 -34 -125 -44 -151 -82 -220 -7 -14 -32 -61 -55 -104 -23 -44 -50 -81
-60 -84 -10 -2 -18 -12 -18 -21 0 -17 -97 -120 -105 -111 -2 3 -7 2 -11 -2 -4
-5 -2 -8 5 -8 21 0 -87 -88 -123 -100 -20 -6 -34 -15 -31 -20 17 -28 -313
-150 -478 -177 -140 -24 -597 -24 -742 -1 -179 28 -410 131 -553 247 -104 83
-255 333 -310 512 -30 98 -71 306 -88 454 -19 156 -31 1353 -19 1922 6 309 9
352 23 358 9 3 77 10 151 16 74 5 136 10 137 12 1 1 6 30 9 63 l7 61 -83 6
c-80 7 -347 6 -655 0z"/>
<path d="M34994 12556 c-3 -7 -4 -35 -2 -62 l3 -49 180 -13 c99 -8 182 -16
184 -18 2 -2 4 -1050 5 -2329 1 -1932 -1 -2327 -12 -2334 -8 -5 -64 -11 -125
-15 -62 -4 -138 -9 -169 -13 l-58 -6 0 -83 0 -84 459 0 c305 0 462 3 466 10 4
6 9 41 12 79 l5 68 -98 11 c-55 6 -130 14 -167 18 -38 3 -84 12 -102 20 -30
12 -33 18 -38 66 -5 66 -12 2175 -10 3193 1 767 8 1030 24 1019 5 -3 9 -13 9
-22 0 -9 7 -30 16 -47 79 -149 205 -411 312 -645 12 -25 28 -56 36 -70 8 -14
33 -64 55 -112 21 -48 66 -131 99 -185 33 -54 106 -192 162 -308 56 -115 107
-219 113 -230 20 -36 73 -149 87 -185 8 -19 24 -49 37 -66 13 -17 23 -38 23
-46 0 -16 61 -166 87 -213 9 -16 36 -70 61 -120 24 -49 98 -200 164 -335 66
-135 127 -256 135 -270 8 -14 34 -68 59 -120 24 -52 51 -106 59 -120 25 -41
75 -149 75 -160 0 -8 114 -254 155 -333 8 -16 15 -35 15 -42 0 -8 8 -16 18
-19 10 -4 29 -31 43 -61 13 -30 27 -55 31 -55 13 0 53 -90 83 -182 15 -49 31
-88 35 -88 10 0 80 120 80 136 0 7 5 16 10 19 6 3 10 15 10 26 0 12 7 19 19
19 12 0 23 12 31 33 6 17 25 63 41 101 16 38 29 74 29 81 0 7 9 19 21 26 11 8
42 65 69 129 27 63 53 114 59 113 5 -2 15 14 22 35 25 77 62 158 90 193 16 20
29 42 29 47 0 19 53 136 80 177 27 40 90 169 90 185 0 4 15 30 33 57 18 27 39
64 47 83 20 52 82 174 90 180 9 6 80 164 80 177 0 6 11 22 25 37 13 14 46 78
73 141 26 64 52 112 57 108 4 -4 5 -2 0 6 -4 7 -3 16 3 20 11 7 102 193 102
210 0 6 7 8 15 5 10 -4 15 0 15 10 0 15 45 95 60 106 3 3 32 58 63 123 32 64
62 117 67 117 6 0 10 6 10 14 0 8 9 31 19 53 11 21 31 64 45 96 14 31 32 60
41 63 8 3 15 12 15 20 0 7 11 37 24 66 13 29 32 76 43 103 10 28 25 50 33 50
17 0 104 212 109 268 1 4 7 7 15 7 13 0 106 197 106 225 0 8 6 15 13 15 8 0
32 39 55 88 23 48 55 112 72 142 16 30 46 89 65 130 19 41 52 107 73 145 l39
70 6 -205 c10 -352 6 -4279 -4 -4286 -8 -4 -365 -32 -436 -34 -9 0 -13 -23
-13 -80 l0 -80 593 2 592 3 6 65 c3 36 2 69 -3 74 -4 6 -90 16 -190 23 -101 7
-206 16 -235 19 l-52 5 -8 67 c-12 100 -10 4569 2 4581 6 5 75 15 155 21 205
15 197 12 194 63 -2 23 -3 50 -3 60 -1 16 -22 17 -305 17 l-303 0 -22 -57
c-12 -32 -28 -64 -35 -73 -8 -8 -96 -177 -197 -375 -251 -496 -262 -519 -273
-567 -4 -16 -11 -27 -17 -25 -14 3 -23 -13 -54 -98 -45 -119 -64 -161 -65
-140 -1 20 -1 20 -15 1 -8 -11 -15 -28 -15 -38 0 -10 -4 -26 -10 -36 -5 -9
-25 -53 -45 -97 -19 -44 -35 -74 -35 -67 0 18 -20 4 -20 -14 0 -8 -10 -36 -21
-62 -12 -26 -34 -76 -49 -111 -15 -35 -30 -57 -32 -50 -4 9 -10 3 -18 -16 -30
-70 -60 -128 -60 -117 0 25 -19 11 -29 -20 -19 -66 -91 -231 -91 -210 0 24
-19 11 -25 -17 -11 -50 -92 -235 -97 -221 -7 23 -28 0 -28 -30 0 -29 -11 -59
-56 -156 -13 -28 -24 -62 -25 -75 0 -21 -1 -21 -8 -5 -5 14 -14 2 -40 -55 -18
-41 -41 -90 -52 -110 -10 -20 -19 -47 -19 -60 0 -17 -3 -20 -9 -11 -5 9 -18
-9 -40 -55 -17 -37 -41 -85 -51 -105 -11 -20 -20 -44 -20 -52 0 -9 -5 -16 -11
-16 -5 0 -24 -30 -40 -67 -17 -38 -38 -81 -46 -97 -9 -16 -19 -43 -23 -60 -4
-17 -11 -30 -17 -29 -6 1 -23 -26 -38 -60 -15 -34 -36 -79 -46 -100 -10 -21
-19 -46 -19 -57 0 -11 -6 -20 -14 -20 -9 0 -29 -38 -52 -97 -57 -150 -58 -152
-65 -147 -11 6 -24 -17 -38 -64 -7 -24 -28 -77 -46 -118 -46 -102 -78 -100
-124 9 -11 26 -24 47 -30 47 -5 0 -30 51 -56 113 -26 61 -52 119 -59 127 -6 8
-25 41 -41 72 -16 31 -32 55 -36 52 -4 -2 -12 11 -19 29 -7 17 -21 50 -30 72
-43 98 -70 163 -70 171 0 4 -8 17 -19 28 -17 19 -91 181 -91 200 0 4 -9 20
-20 36 -11 15 -41 74 -66 131 -26 57 -52 111 -59 119 -6 8 -31 60 -55 115 -24
55 -56 123 -71 150 -15 28 -44 92 -65 143 -25 64 -39 89 -45 80 -6 -8 -9 -9
-9 -1 0 6 -3 20 -6 30 -5 15 -4 15 5 3 6 -8 11 -11 11 -7 0 5 -9 21 -19 36
-11 15 -29 50 -40 78 -18 47 -263 554 -315 653 -13 25 -43 89 -66 143 -23 53
-46 97 -50 97 -4 0 -26 48 -50 108 -23 59 -66 148 -95 197 -62 107 -95 170
-129 245 -14 30 -36 75 -50 100 -24 43 -122 250 -238 505 -31 66 -58 132 -62
148 l-6 27 -301 0 c-245 0 -301 -2 -305 -14z m2340 -4141 c3 -8 1 -15 -4 -15
-6 0 -10 7 -10 15 0 8 2 15 4 15 2 0 6 -7 10 -15z m76 -120 c0 -8 -2 -15 -4
-15 -2 0 -6 7 -10 15 -3 8 -1 15 4 15 6 0 10 -7 10 -15z"/>
<path d="M17302 12498 l3 -63 75 -7 c41 -4 136 -11 210 -15 l135 -8 8 -290
c12 -458 4 -4362 -9 -4375 -7 -7 -93 -16 -207 -23 -107 -7 -198 -14 -200 -17
-3 -3 -7 -40 -9 -83 l-3 -77 583 -6 582 -5 0 84 0 84 -67 6 c-38 4 -139 12
-225 18 -118 9 -158 16 -163 26 -8 23 -6 4676 2 4684 5 4 229 10 498 14 544 7
1027 -5 1138 -29 67 -15 267 -97 337 -139 189 -112 414 -338 583 -584 99 -143
123 -197 138 -308 28 -218 -17 -625 -70 -625 -5 0 -16 -21 -26 -47 -10 -27
-27 -60 -37 -75 -11 -16 -16 -33 -12 -39 4 -7 3 -9 -3 -6 -5 3 -29 -32 -54
-78 -27 -52 -55 -90 -72 -100 -16 -10 -33 -29 -38 -45 -7 -17 -36 -44 -84 -76
-41 -26 -75 -52 -75 -55 0 -10 -193 -85 -255 -100 -28 -6 -66 -18 -85 -25 -80
-30 -325 -77 -500 -95 -119 -13 -291 -7 -365 12 -44 11 -47 14 -25 20 l25 7
-26 1 c-15 1 -98 19 -185 40 -88 22 -251 58 -364 80 -113 23 -254 54 -314 71
-61 16 -112 27 -115 24 -12 -12 -3 -166 10 -175 20 -12 233 -86 484 -168 590
-194 719 -266 1077 -603 73 -69 201 -185 283 -259 83 -73 218 -196 300 -272
152 -142 298 -264 390 -327 28 -19 95 -68 150 -109 193 -144 371 -268 505
-351 74 -45 157 -97 185 -114 81 -50 101 -61 310 -167 110 -56 218 -112 240
-125 36 -20 209 -85 400 -149 58 -19 329 -85 450 -109 153 -31 499 -48 717
-35 276 15 543 73 893 191 183 62 282 106 402 179 37 23 96 56 132 74 188 95
287 149 298 162 6 8 40 32 74 52 82 48 86 56 61 114 -24 54 -38 58 -97 26 -22
-12 -53 -28 -70 -37 -16 -8 -41 -25 -55 -37 -14 -12 -54 -37 -90 -55 -36 -19
-80 -45 -99 -58 -18 -14 -70 -41 -115 -61 -44 -20 -97 -46 -116 -57 -19 -12
-89 -43 -155 -68 -66 -26 -127 -51 -136 -56 -57 -30 -271 -106 -359 -126 -155
-37 -392 -82 -495 -94 -140 -16 -477 -12 -560 5 -38 9 -126 25 -195 36 -258
42 -445 95 -650 186 -25 11 -72 30 -105 43 -33 12 -103 42 -155 65 -52 23
-129 57 -170 75 -41 18 -100 47 -130 65 -30 18 -84 49 -120 70 -267 152 -425
260 -965 664 -45 33 -155 129 -245 212 -91 84 -226 204 -300 268 -74 64 -195
172 -268 241 -341 321 -395 364 -575 454 -69 35 -74 53 -12 42 59 -11 391 20
535 51 134 28 326 82 381 108 141 65 368 216 508 339 36 31 68 56 72 56 4 0
19 20 33 44 14 24 39 56 55 72 16 15 46 64 66 108 21 45 49 106 63 136 44 95
55 139 67 277 10 103 -20 324 -50 383 -33 63 -85 181 -85 193 0 6 -12 25 -26
44 -14 18 -51 70 -82 116 -75 108 -400 423 -530 514 -127 87 -317 176 -440
205 l-97 23 -1163 3 -1163 3 3 -63z"/>
<path d="M23388 12553 l-117 -4 -10 -32 c-5 -18 -15 -51 -21 -74 -6 -26 -17
-43 -25 -43 -16 0 -38 -34 -28 -43 3 -3 14 4 24 16 21 26 23 22 8 -22 -9 -25
-14 -29 -24 -21 -16 14 -33 -13 -50 -80 -6 -26 -17 -45 -25 -45 -8 0 -31 -49
-59 -126 -25 -70 -52 -134 -60 -143 -8 -10 -36 -72 -61 -139 -61 -158 -187
-471 -210 -522 -10 -22 -32 -85 -49 -139 -18 -55 -39 -105 -47 -111 -14 -10
-57 -114 -73 -180 -11 -41 -34 -84 -46 -84 -5 0 -13 -13 -17 -28 -6 -25 -43
-133 -82 -238 -8 -22 -15 -35 -16 -30 -1 20 -27 -43 -64 -158 -22 -66 -49
-128 -63 -143 -12 -14 -23 -32 -23 -41 0 -30 -82 -263 -91 -257 -10 6 -11 4
-69 -158 -23 -65 -46 -118 -50 -118 -4 0 -10 -10 -13 -22 -4 -13 -28 -86 -55
-163 -36 -104 -52 -139 -63 -137 -15 2 -34 -41 -41 -93 -2 -11 -16 -26 -31
-33 -15 -7 -27 -21 -27 -30 0 -25 -55 -191 -68 -204 -5 -5 -77 -15 -159 -22
-82 -7 -154 -15 -160 -19 -12 -7 -18 -157 -6 -157 120 -7 486 -10 631 -5 l192
7 0 82 0 81 -53 2 c-154 7 -217 15 -217 29 0 7 14 50 30 96 17 45 30 90 30 99
0 10 7 22 15 26 8 5 36 65 62 133 25 69 52 130 60 136 7 6 30 56 50 110 20 55
43 109 50 121 8 12 11 28 7 35 -4 7 -4 10 1 6 14 -13 109 222 107 264 0 10 8
24 19 31 12 9 31 52 50 113 17 54 38 105 47 112 12 9 202 12 869 12 l852 0 15
-29 c9 -16 40 -93 71 -172 30 -79 90 -216 134 -304 44 -88 121 -266 171 -395
51 -129 105 -262 121 -295 15 -33 31 -72 34 -86 6 -26 5 -26 -62 -32 -37 -4
-89 -7 -114 -7 l-46 0 -7 -46 c-3 -26 -6 -64 -6 -85 l0 -39 203 -2 c309 -2
352 -2 495 0 l132 2 0 84 0 84 -115 3 c-100 4 -116 7 -129 24 -9 11 -16 16
-16 11 0 -20 -40 28 -40 49 0 12 -9 40 -20 63 -11 22 -20 45 -20 51 0 5 -26
72 -59 148 -32 76 -64 156 -71 178 -7 22 -26 69 -43 105 -34 74 -128 304 -188
460 -130 338 -227 562 -251 580 -15 11 -211 495 -223 550 -4 17 -13 30 -21 30
-7 0 -17 12 -20 28 -4 15 -17 54 -30 87 -12 33 -32 92 -44 132 -12 39 -25 73
-29 75 -4 2 -24 46 -44 98 -67 173 -95 244 -150 375 -72 172 -120 289 -141
348 -10 27 -24 51 -32 54 -8 3 -12 8 -9 13 2 4 -12 54 -33 111 l-37 104 -45 1
c-25 0 -98 -1 -162 -3z m41 -377 c22 -47 52 -115 67 -153 14 -37 48 -120 75
-183 27 -63 57 -140 68 -170 10 -30 35 -90 55 -132 19 -42 47 -117 62 -165 15
-48 33 -95 40 -103 7 -9 38 -84 68 -166 30 -83 63 -168 74 -190 11 -21 31 -71
45 -110 14 -40 44 -111 67 -158 36 -77 90 -225 90 -247 0 -5 -341 -9 -775 -9
-732 0 -775 1 -775 18 1 9 7 28 15 42 8 14 14 35 15 47 0 12 11 34 24 48 13
14 36 63 51 108 15 45 39 105 54 132 15 28 40 82 55 120 16 39 35 86 43 107 8
20 16 51 17 69 1 18 7 34 14 37 8 2 10 -3 6 -15 -6 -16 -5 -15 8 2 8 11 28 58
43 105 15 47 47 128 70 180 23 52 50 122 60 155 10 33 22 64 27 69 4 6 8 21 8
35 1 25 20 61 33 61 4 0 4 -8 0 -17 -3 -10 -4 -16 -1 -13 5 5 46 100 62 145 5
13 9 16 15 7 4 -7 21 26 40 81 19 50 45 115 58 142 39 81 73 167 73 187 0 10
2 18 4 18 2 0 22 -38 45 -84z m-429 -756 c0 -5 -4 -10 -10 -10 -5 0 -10 5 -10
10 0 6 5 10 10 10 6 0 10 -4 10 -10z m40 -1075 c0 -13 -29 -15 -212 -15 -117
1 -223 4 -235 7 -62 15 -2 21 212 22 204 1 235 -1 235 -14z m55 5 c-3 -5 -10
-10 -16 -10 -5 0 -9 5 -9 10 0 6 7 10 16 10 8 0 12 -4 9 -10z m98 3 c-7 -2
-19 -2 -25 0 -7 3 -2 5 12 5 14 0 19 -2 13 -5z m184 1 c-3 -3 -12 -4 -19 -1
-8 3 -5 6 6 6 11 1 17 -2 13 -5z m778 -2 c-10 -10 -59 -12 -362 -19 -205 -4
-283 -2 -283 6 0 6 -9 11 -20 11 -11 0 -20 -6 -20 -12 0 -10 -2 -10 -8 -2 -4
7 -18 14 -32 17 -14 2 145 5 353 5 208 0 376 -2 372 -6z"/>
<path d="M10510 12539 c0 -5 5 -7 10 -4 6 3 10 8 10 11 0 2 -4 4 -10 4 -5 0
-10 -5 -10 -11z"/>
<path d="M10546 12495 c0 -30 3 -57 6 -60 2 -3 83 -12 179 -21 95 -8 176 -18
179 -21 16 -15 20 -4585 5 -4625 -8 -21 -30 -26 -213 -47 l-147 -17 -9 -72
c-4 -40 -6 -75 -5 -76 10 -8 516 -24 669 -20 177 3 380 -15 548 -51 37 -7 159
-30 272 -50 113 -20 295 -59 405 -85 408 -98 642 -146 1205 -245 356 -63 1062
-67 1455 -9 93 14 337 67 535 116 97 24 382 121 422 143 14 8 77 35 140 59
143 56 529 241 545 263 7 8 33 30 60 47 28 18 50 41 53 56 8 31 -6 76 -26 84
-17 7 -170 -40 -179 -55 -4 -5 -55 -33 -113 -61 -59 -29 -114 -58 -123 -65
-24 -20 -234 -121 -330 -158 -47 -19 -102 -43 -120 -54 -64 -37 -536 -166
-699 -191 -47 -7 -139 -23 -204 -37 -196 -40 -310 -52 -542 -59 -232 -7 -463
4 -644 31 -265 40 -725 118 -820 140 -58 13 -172 38 -255 55 -82 17 -213 47
-289 66 -76 19 -214 51 -305 70 -91 19 -188 41 -216 48 -88 25 -499 105 -590
115 -49 6 -93 15 -99 21 -12 12 -17 4653 -5 4664 3 3 82 13 175 21 93 8 183
19 199 23 30 8 41 30 44 90 l1 22 -582 0 -583 0 1 -55z"/>
<path d="M35573 11870 c0 -30 2 -43 4 -27 2 15 2 39 0 55 -2 15 -4 2 -4 -28z"/>
<path d="M35569 11768 c0 -2 -3 -121 -6 -265 -4 -189 -2 -263 6 -263 8 0 11
78 11 265 0 146 -2 265 -5 265 -3 0 -5 -1 -6 -2z"/>
<path d="M19060 10040 c14 -4 34 -8 45 -8 16 0 15 2 -5 8 -14 4 -34 8 -45 8
-16 0 -15 -2 5 -8z"/>
<path d="M15687 3554 c-9 -9 -9 -1502 0 -1507 5 -3 40 -3 78 0 l70 5 -2 752
-2 751 -69 3 c-37 1 -71 0 -75 -4z"/>
<path d="M20852 3552 c-10 -7 -12 -165 -10 -758 l3 -749 93 0 c50 0 92 3 92 8
0 4 0 345 0 757 l0 750 -82 0 c-46 0 -89 -4 -96 -8z"/>
<path d="M31406 3552 c-3 -5 -4 -346 -3 -758 l2 -749 73 0 72 0 0 755 1 755
-70 3 c-38 2 -72 -1 -75 -6z"/>
<path d="M36390 3520 c0 -5 7 -10 16 -10 8 0 12 5 9 10 -3 6 -10 10 -16 10 -5
0 -9 -4 -9 -10z"/>
<path d="M33472 3416 l-3 -94 220 -3 c121 -2 223 -7 226 -11 4 -4 6 -291 6
-637 l-2 -631 79 0 79 0 6 392 c4 215 7 500 7 634 0 211 2 243 16 248 9 3 103
6 210 6 l194 0 0 95 0 95 -517 0 -518 -1 -3 -93z"/>
<path d="M36313 3494 c-7 -18 20 -86 58 -145 16 -25 29 -49 29 -53 0 -4 21
-48 47 -99 100 -199 111 -224 123 -283 9 -44 11 -178 9 -462 l-4 -400 59 -6
c32 -3 74 -6 92 -6 l33 0 3 448 c3 409 5 450 22 487 10 22 38 81 61 130 24 50
50 110 58 135 8 25 31 79 51 120 19 41 38 87 42 103 6 28 0 31 -71 30 -41 -1
-46 -4 -55 -28 -5 -14 -12 -25 -15 -25 -4 0 -3 5 1 11 4 7 1 10 -7 7 -8 -3
-35 -67 -61 -144 -26 -76 -59 -165 -74 -196 -27 -56 -27 -57 -44 -35 -9 12
-28 42 -42 67 -13 25 -33 61 -44 80 -11 19 -35 68 -53 109 -41 93 -87 151
-121 151 -14 0 -40 4 -58 9 -26 8 -34 7 -39 -5z"/>
<path d="M10281 3480 c-107 -16 -136 -30 -205 -94 -36 -35 -73 -80 -81 -101
-9 -21 -25 -49 -36 -64 -42 -57 -51 -153 -46 -481 4 -225 9 -318 20 -355 24
-81 83 -176 150 -238 84 -79 129 -92 312 -92 190 0 238 17 330 119 111 121
125 192 125 626 0 366 -16 445 -110 545 -26 28 -50 57 -52 65 -7 19 -113 56
-198 70 -73 11 -130 11 -209 0z m214 -185 c38 -15 101 -76 145 -140 l35 -50 3
-315 c3 -306 -3 -390 -28 -390 -5 0 -18 -17 -29 -39 -26 -50 -72 -88 -117 -97
-20 -4 -38 -12 -40 -19 -7 -16 -87 -27 -116 -15 -14 5 -17 9 -8 10 8 0 -21 15
-65 32 -44 17 -89 39 -101 50 -12 10 -30 47 -40 81 -17 55 -19 96 -19 377 0
287 2 320 19 365 25 63 37 78 87 100 25 12 38 23 35 32 -3 7 4 15 17 18 110
25 162 25 222 0z"/>
<path d="M23085 3478 c-3 -7 -4 -330 -3 -718 l3 -705 83 -3 82 -3 0 510 c0
472 5 567 25 499 4 -13 18 -40 32 -60 22 -33 49 -96 190 -438 19 -47 54 -125
77 -175 24 -49 47 -101 51 -115 7 -24 20 -48 83 -165 l27 -50 58 -3 57 -3 0
721 0 720 -60 0 -60 0 -1 -457 c-1 -465 -6 -588 -24 -588 -16 0 -53 75 -86
175 -17 52 -40 111 -51 130 -11 19 -40 86 -64 147 -24 62 -55 135 -68 162 -29
57 -96 230 -96 249 0 7 -11 17 -24 22 -18 7 -28 21 -36 52 -25 103 -27 105
-133 107 -38 1 -59 -3 -62 -11z"/>
<path d="M26288 3479 c-7 -5 -14 -13 -14 -19 -1 -5 -2 -16 -3 -22 -1 -7 -10
-2 -20 11 l-19 25 -12 -60 c-35 -175 -62 -293 -86 -371 -14 -49 -41 -153 -61
-233 -19 -80 -45 -183 -59 -230 -23 -80 -109 -432 -119 -488 -2 -14 -10 -29
-17 -34 -7 -4 24 -8 72 -8 l86 0 18 105 c29 173 29 171 82 179 26 3 114 6 197
6 83 0 148 2 146 5 -3 2 -77 5 -165 5 -174 2 -228 13 -119 25 65 7 332 -4 308
-12 -8 -3 -4 -12 12 -26 19 -18 29 -47 49 -146 14 -68 27 -126 29 -128 2 -2
41 -6 86 -10 98 -7 95 -14 45 135 -19 58 -53 186 -75 284 -21 98 -46 197 -54
221 -8 24 -35 128 -60 231 -25 102 -52 203 -61 224 -13 31 -34 117 -79 320 -5
19 -11 22 -50 20 -24 0 -50 -5 -57 -9z m32 -310 c0 -11 11 -41 24 -67 13 -26
33 -87 45 -137 22 -95 71 -367 71 -397 0 -16 -13 -18 -150 -18 -136 0 -150 2
-150 18 0 34 59 278 78 328 26 64 52 189 52 247 0 24 3 47 6 50 11 11 24 -3
24 -24z m-83 -246 c-3 -10 -5 -4 -5 12 0 17 2 24 5 18 2 -7 2 -21 0 -30z"/>
<path d="M28826 3482 c-3 -4 -5 -329 -5 -720 l0 -712 317 2 317 3 3 98 3 97
-38 2 c-21 1 -51 3 -68 4 -16 1 -108 2 -202 3 l-173 1 0 615 0 615 -74 0 c-41
0 -77 -4 -80 -8z"/>
<path d="M12920 2765 l0 -715 50 0 50 0 0 195 0 195 175 0 175 0 14 -32 c8
-18 20 -48 26 -65 7 -18 16 -33 21 -33 16 0 41 -49 74 -147 l33 -98 51 -3 52
-3 -7 53 c-9 80 -40 173 -89 274 -26 52 -43 99 -39 108 3 8 21 25 39 36 37 23
40 29 61 120 21 89 30 457 15 576 -17 127 -38 193 -64 204 -12 4 -33 17 -46
29 -23 20 -34 21 -308 21 l-283 0 0 -715z m642 630 c4 -20 3 -23 -8 -14 -16
13 -19 39 -5 39 5 0 11 -11 13 -25z m-98 -85 c16 -6 26 -17 26 -30 0 -11 7
-31 15 -44 12 -18 15 -65 16 -237 1 -245 -3 -285 -34 -293 -29 -8 -431 -8
-451 0 -14 5 -16 42 -16 303 0 164 3 301 7 304 10 11 409 8 437 -3z m35 -636
c1 -1 0 -7 -4 -13 -4 -7 -85 -11 -241 -11 -188 0 -234 3 -234 13 0 8 2 16 6
19 5 6 466 -2 473 -8z"/>
<path d="M18229 3470 c-73 -9 -137 -42 -197 -101 -56 -55 -127 -160 -138 -204
-4 -16 -14 -41 -22 -54 -20 -30 -30 -471 -13 -606 14 -122 65 -225 153 -313
77 -78 135 -109 232 -124 193 -30 378 65 461 237 30 63 45 192 45 390 l0 145
-199 0 -199 0 -6 -72 c-10 -132 -20 -122 119 -128 l120 -5 -2 -85 c-2 -74 -6
-94 -33 -145 -43 -84 -71 -110 -142 -134 -74 -25 -89 -26 -165 -6 -77 20 -101
39 -147 120 l-40 69 -9 235 c-12 286 -3 424 28 430 24 4 35 19 35 47 0 27 46
70 90 85 19 6 42 20 51 31 26 33 93 26 164 -16 76 -46 101 -74 110 -125 8 -47
8 -47 128 -55 58 -4 79 -3 83 7 6 17 -30 121 -63 176 -36 61 -109 139 -153
161 -72 37 -189 53 -291 40z"/>
</g>
</svg>
